<svg width="591" height="586" viewBox="0 0 591 586" fill="none" xmlns="http://www.w3.org/2000/svg">
<g clip-path="url(#clip0)">
<path d="M437.2 20.4001C517.3 66.7001 582 178.8 581.8 270.9C581.5 363 516.4 400.1 436.2 353.8C356.1 307.5 291.3 195.4 291.6 103.3C291.9 11.2001 357 -25.8999 437.2 20.4001Z" stroke="#C396FC" stroke-miterlimit="10"/>
<path d="M437 71.9999C492.3 103.9 537 181.4 536.9 245C536.8 308.6 491.7 334.2 436.4 302.3C381.1 270.4 336.4 192.9 336.5 129.3C336.7 65.6999 381.7 39.9999 437 71.9999Z" stroke="#C396FC" stroke-miterlimit="10"/>
<path d="M436.9 112.6C472.7 133.3 501.6 183.4 501.5 224.5C501.4 265.6 472.3 282.2 436.5 261.6C400.7 241 371.8 190.8 371.9 149.7C372 108.6 401.1 92 436.9 112.6Z" fill="white"/>
<path d="M290.5 82.9C300.5 88.7 308.6 102.7 308.6 114.2C308.6 125.7 300.4 130.4 290.4 124.6C280.4 118.8 272.3 104.8 272.3 93.3C272.3 81.8 280.5 77.1 290.5 82.9Z" fill="url(#paint0_linear)"/>
<path d="M418.6 44.2C428.6 50 436.7 64 436.7 75.5C436.7 87 428.5 91.7 418.5 85.9C408.5 80.1 400.4 66.1 400.4 54.6C400.4 43.1 408.6 38.4 418.6 44.2Z" fill="url(#paint1_linear)"/>
<path d="M478.6 292.5C488.6 298.3 496.7 312.3 496.7 323.8C496.7 335.3 488.5 340 478.5 334.2C468.5 328.4 460.4 314.4 460.4 302.9C460.4 291.3 468.6 286.7 478.6 292.5Z" fill="url(#paint2_linear)"/>
<path d="M572.2 191.3C582.2 197.1 590.3 211.1 590.3 222.6C590.3 234.1 582.1 238.8 572.1 233C562.1 227.2 554 213.2 554 201.7C554 190.2 562.1 185.5 572.2 191.3Z" fill="url(#paint3_linear)"/>
<path d="M62.7008 374.3C75.6242 374.3 86.1008 368.301 86.1008 360.9C86.1008 353.499 75.6242 347.5 62.7008 347.5C49.7773 347.5 39.3008 353.499 39.3008 360.9C39.3008 368.301 49.7773 374.3 62.7008 374.3Z" fill="url(#paint4_linear)"/>
<path d="M33.0996 323.9H79.6996L72.0996 360.1H71.9996C71.0996 364.6 64.4996 368.1 56.3996 368.1C48.2996 368.1 41.5996 364.6 40.7996 360L33.0996 323.9Z" fill="url(#paint5_linear)"/>
<path d="M56.4 335.8C69.3235 335.8 79.8 329.801 79.8 322.4C79.8 314.999 69.3235 309 56.4 309C43.4765 309 33 314.999 33 322.4C33 329.801 43.4765 335.8 56.4 335.8Z" fill="url(#paint6_linear)"/>
<path d="M56.4 333.5C67.1143 333.5 75.8 328.53 75.8 322.4C75.8 316.27 67.1143 311.3 56.4 311.3C45.6857 311.3 37 316.27 37 322.4C37 328.53 45.6857 333.5 56.4 333.5Z" fill="#5C22B7"/>
<path d="M55.2008 256.6C36.5008 252.6 29.4008 238.2 27.5008 226.5C25.6008 214.9 20.8008 206.3 20.8008 206.3C68.7008 218.7 55.2008 256.6 55.2008 256.6Z" fill="url(#paint7_linear)"/>
<path d="M27.2012 212.2C27.2012 212.2 41.1012 234.1 47.5012 245.2C53.9012 256.3 58.8012 262.2 59.1012 293.7C59.4012 325.2 59.1012 323.9 59.1012 323.9H61.1012C61.1012 323.9 61.2012 307.7 61.1012 293.8C61.0012 279.9 60.0012 261.7 52.3012 248.9C44.6012 236.1 27.2012 212.2 27.2012 212.2Z" fill="url(#paint8_linear)"/>
<path d="M55.201 256.6C36.501 252.6 29.401 238.2 27.501 226.5C31.001 239.5 38.301 244 46.801 247.3C55.301 250.6 55.201 256.6 55.201 256.6Z" fill="url(#paint9_linear)"/>
<path d="M52.8004 278.7C30.5004 278.3 19.3004 263.4 14.6004 250.6C9.90039 237.7 2.40039 229 2.40039 229C59.7004 232.4 52.8004 278.7 52.8004 278.7Z" fill="url(#paint10_linear)"/>
<path d="M51.1004 323.9C51.1004 323.9 55.1004 305.5 53.3004 287.1C51.4004 267.4 11.9004 235.3 11.9004 235.3C11.9004 235.3 49.9004 260.4 54.8004 285.5C57.0004 297.6 54.8004 323.9 54.8004 323.9H51.1004Z" fill="url(#paint11_linear)"/>
<path d="M52.8006 278.7C30.5006 278.3 19.3006 263.4 14.6006 250.6C21.7006 265 27.2006 265.5 38.4006 268.1C49.5006 270.7 52.8006 278.7 52.8006 278.7Z" fill="url(#paint12_linear)"/>
<path d="M57.9006 278.7C80.2006 278.3 91.4006 263.4 96.1006 250.6C100.801 237.8 108.301 229.1 108.301 229.1C51.0006 232.4 57.9006 278.7 57.9006 278.7Z" fill="url(#paint13_linear)"/>
<path d="M59.6006 323.9C59.6006 323.9 55.6006 305.5 57.4006 287.1C59.3006 267.4 98.8006 235.3 98.8006 235.3C98.8006 235.3 60.8006 260.4 55.9006 285.5C53.7006 297.6 55.9006 323.9 55.9006 323.9H59.6006Z" fill="url(#paint14_linear)"/>
<path d="M57.9004 278.7C80.2004 278.3 91.4004 263.4 96.1004 250.6C89.0004 265 83.5004 265.5 72.3004 268.1C61.2004 270.7 57.9004 278.7 57.9004 278.7Z" fill="url(#paint15_linear)"/>
<path d="M53.0004 310.2V323.8H52.2004L52.0004 310.2C52.0004 310.2 42.7004 296 26.9004 286.6C11.1004 277.1 3.30039 271.1 -0.0996094 264.5C-0.0996094 264.5 9.00039 269.7 26.2004 274C43.4004 278.3 38.2004 285.5 44.3004 290.3C50.5004 295.2 57.3004 298.8 53.0004 310.2Z" fill="url(#paint16_linear)"/>
<path d="M52.1 310.3C52.1 310.3 42.8 296.1 27 286.7C11.2 277.2 3.4 271.2 0 264.6C6.9 273.5 15.4 276.7 25.5 277.8C35.6 278.9 35.1 289.1 44.4 293.5C53.7 298 52.1 310.3 52.1 310.3Z" fill="url(#paint17_linear)"/>
<path d="M58.0004 310.2V323.8H58.8004L59.0004 310.2C59.0004 310.2 68.3004 296 84.1004 286.6C99.9004 277.1 107.7 271.1 111.1 264.5C111.1 264.5 102 269.7 84.8004 274C67.6004 278.3 72.8004 285.5 66.7004 290.3C60.5004 295.2 53.6004 298.8 58.0004 310.2Z" fill="url(#paint18_linear)"/>
<path d="M58.9008 310.3C58.9008 310.3 68.2008 296.1 84.0008 286.7C99.8008 277.2 107.601 271.2 111.001 264.6C104.101 273.5 95.6008 276.7 85.5008 277.8C75.4008 278.9 75.9008 289.1 66.6008 293.5C57.3008 298 58.9008 310.3 58.9008 310.3Z" fill="url(#paint19_linear)"/>
<path d="M46.2006 315.8V323.9H45.7006L45.6006 315.8C45.6006 315.8 40.1006 307.4 30.7006 301.7C21.3006 296.1 16.7006 292.5 14.6006 288.6C14.6006 288.6 20.0006 291.7 30.3006 294.3C40.5006 296.9 37.4006 301.1 41.1006 304C44.8006 306.8 48.8006 308.9 46.2006 315.8Z" fill="url(#paint20_linear)"/>
<path d="M45.7002 315.8C45.7002 315.8 40.2002 307.4 30.8002 301.7C21.4002 296.1 16.8002 292.5 14.7002 288.6C18.8002 293.9 23.9002 295.8 29.9002 296.5C35.9002 297.2 35.6002 303.2 41.2002 305.8C46.7002 308.5 45.7002 315.8 45.7002 315.8Z" fill="url(#paint21_linear)"/>
<path d="M66.8003 315.8V323.9H67.3003L67.4003 315.8C67.4003 315.8 72.9003 307.4 82.3003 301.7C91.7003 296.1 96.3003 292.5 98.4003 288.6C98.4003 288.6 93.0003 291.7 82.7003 294.3C72.5003 296.9 75.6003 301.1 71.9003 304C68.3003 306.8 64.2003 308.9 66.8003 315.8Z" fill="url(#paint22_linear)"/>
<path d="M67.3004 315.8C67.3004 315.8 72.8004 307.4 82.2004 301.7C91.6004 296.1 96.2004 292.5 98.3004 288.6C94.2004 293.9 89.1004 295.8 83.1004 296.5C77.1004 297.2 77.4004 303.2 71.8004 305.8C66.4004 308.5 67.3004 315.8 67.3004 315.8Z" fill="url(#paint23_linear)"/>
<path d="M60.8002 325.7C61.6838 325.7 62.4002 324.984 62.4002 324.1C62.4002 323.216 61.6838 322.5 60.8002 322.5C59.9165 322.5 59.2002 323.216 59.2002 324.1C59.2002 324.984 59.9165 325.7 60.8002 325.7Z" fill="url(#paint24_linear)"/>
<path d="M52.6 324.3C53.2075 324.3 53.7 323.808 53.7 323.2C53.7 322.593 53.2075 322.1 52.6 322.1C51.9925 322.1 51.5 322.593 51.5 323.2C51.5 323.808 51.9925 324.3 52.6 324.3Z" fill="url(#paint25_linear)"/>
<path d="M54.9008 324.8C55.7844 324.8 56.5008 324.084 56.5008 323.2C56.5008 322.316 55.7844 321.6 54.9008 321.6C54.0171 321.6 53.3008 322.316 53.3008 323.2C53.3008 324.084 54.0171 324.8 54.9008 324.8Z" fill="#F9FAFF"/>
<path d="M51.2006 330C52.0842 330 52.8006 329.284 52.8006 328.4C52.8006 327.516 52.0842 326.8 51.2006 326.8C50.3169 326.8 49.6006 327.516 49.6006 328.4C49.6006 329.284 50.3169 330 51.2006 330Z" fill="url(#paint26_linear)"/>
<path d="M45.3002 325.1C46.1838 325.1 46.9002 324.384 46.9002 323.5C46.9002 322.616 46.1838 321.9 45.3002 321.9C44.4165 321.9 43.7002 322.616 43.7002 323.5C43.7002 324.384 44.4165 325.1 45.3002 325.1Z" fill="url(#paint27_linear)"/>
<path d="M68.9008 324.6C69.5083 324.6 70.0008 324.108 70.0008 323.5C70.0008 322.893 69.5083 322.4 68.9008 322.4C68.2933 322.4 67.8008 322.893 67.8008 323.5C67.8008 324.108 68.2933 324.6 68.9008 324.6Z" fill="url(#paint28_linear)"/>
<path d="M67.0004 325.7C67.884 325.7 68.6004 324.984 68.6004 324.1C68.6004 323.216 67.884 322.5 67.0004 322.5C66.1167 322.5 65.4004 323.216 65.4004 324.1C65.4004 324.984 66.1167 325.7 67.0004 325.7Z" fill="#F9FAFF"/>
<path d="M50.8002 325C51.4077 325 51.9002 324.508 51.9002 323.9C51.9002 323.293 51.4077 322.8 50.8002 322.8C50.1927 322.8 49.7002 323.293 49.7002 323.9C49.7002 324.508 50.1927 325 50.8002 325Z" fill="#F9FAFF"/>
<path d="M54.8002 325.9C55.4077 325.9 55.9002 325.407 55.9002 324.8C55.9002 324.192 55.4077 323.7 54.8002 323.7C54.1927 323.7 53.7002 324.192 53.7002 324.8C53.7002 325.407 54.1927 325.9 54.8002 325.9Z" fill="url(#paint29_linear)"/>
<path d="M46.3002 326.3C46.9077 326.3 47.4002 325.808 47.4002 325.2C47.4002 324.593 46.9077 324.1 46.3002 324.1C45.6927 324.1 45.2002 324.593 45.2002 325.2C45.2002 325.808 45.6927 326.3 46.3002 326.3Z" fill="#F9FAFF"/>
<path d="M48.5004 321.6C49.1079 321.6 49.6004 321.108 49.6004 320.5C49.6004 319.893 49.1079 319.4 48.5004 319.4C47.8929 319.4 47.4004 319.893 47.4004 320.5C47.4004 321.108 47.8929 321.6 48.5004 321.6Z" fill="url(#paint30_linear)"/>
<path d="M58.8002 325.2C59.4077 325.2 59.9002 324.708 59.9002 324.1C59.9002 323.492 59.4077 323 58.8002 323C58.1927 323 57.7002 323.492 57.7002 324.1C57.7002 324.708 58.1927 325.2 58.8002 325.2Z" fill="#F9FAFF"/>
<path d="M58.1 330.3C58.7075 330.3 59.2 329.808 59.2 329.2C59.2 328.593 58.7075 328.1 58.1 328.1C57.4925 328.1 57 328.593 57 329.2C57 329.808 57.4925 330.3 58.1 330.3Z" fill="url(#paint31_linear)"/>
<path d="M63.6 320.4C64.2075 320.4 64.7 319.907 64.7 319.3C64.7 318.692 64.2075 318.2 63.6 318.2C62.9925 318.2 62.5 318.692 62.5 319.3C62.5 319.907 62.9925 320.4 63.6 320.4Z" fill="url(#paint32_linear)"/>
<path d="M63.8002 329.2C64.4077 329.2 64.9002 328.708 64.9002 328.1C64.9002 327.492 64.4077 327 63.8002 327C63.1927 327 62.7002 327.492 62.7002 328.1C62.7002 328.708 63.1927 329.2 63.8002 329.2Z" fill="url(#paint33_linear)"/>
<path d="M491.5 521.6L272.9 394.6H195L97.5 450.9L329.2 585.6H398.9C404.2 585.6 409.5 584.2 414.1 581.5L491.4 536.9C497.3 533.4 497.3 525 491.5 521.6Z" fill="url(#paint34_linear)"/>
<path d="M349.801 222.9C349.401 222.8 349.001 222.7 348.601 222.6H348.501C348.101 222.6 347.701 222.6 347.301 222.7C347.301 222.7 347.301 222.7 347.201 222.7C346.801 222.8 346.501 222.9 346.101 223.1L355.101 217.8C355.201 217.7 355.301 217.7 355.501 217.6C355.601 217.5 355.801 217.5 355.901 217.5C356.001 217.5 356.101 217.5 356.201 217.4C356.201 217.4 356.201 217.4 356.301 217.4H356.401C356.501 217.4 356.701 217.4 356.801 217.3C357.001 217.3 357.101 217.3 357.301 217.3C357.401 217.3 357.401 217.3 357.501 217.3H357.601C357.701 217.3 357.801 217.3 357.901 217.3C358.101 217.3 358.301 217.4 358.501 217.4C358.601 217.4 358.701 217.5 358.801 217.5C358.901 217.5 359.001 217.6 359.101 217.6C359.201 217.6 359.301 217.7 359.401 217.7C359.701 217.8 360.101 218 360.401 218.2L402.701 242.6C403.201 242.9 403.601 243.2 404.001 243.5C404.101 243.6 404.301 243.7 404.401 243.9C404.601 244.1 404.801 244.3 405.101 244.5C405.201 244.6 405.301 244.7 405.301 244.8C405.401 244.9 405.501 245 405.501 245.1C405.601 245.2 405.701 245.3 405.801 245.4C406.001 245.6 406.201 245.9 406.401 246.1C406.401 246.2 406.501 246.2 406.501 246.3L406.601 246.4C406.701 246.5 406.801 246.6 406.901 246.7C407.001 246.9 407.201 247.1 407.301 247.3C407.401 247.5 407.501 247.7 407.601 247.8C407.701 248 407.801 248.2 407.901 248.4C408.001 248.6 408.101 248.8 408.201 249C408.301 249.1 408.301 249.2 408.401 249.4V249.5C408.401 249.6 408.401 249.6 408.501 249.7C408.601 249.9 408.701 250.1 408.801 250.4C408.901 250.6 409.001 250.9 409.001 251.1C409.001 251.2 409.001 251.2 409.101 251.3V251.4C409.101 251.5 409.201 251.7 409.201 251.8C409.301 252.1 409.301 252.4 409.401 252.6C409.401 252.7 409.401 252.8 409.501 252.9C409.501 253 409.501 253.1 409.601 253.2C409.601 253.3 409.701 253.5 409.701 253.6C409.801 254 409.801 254.4 409.801 254.8L412.801 353.3C412.901 355.7 412.001 357.4 410.701 358.2L401.701 363.5C403.101 362.7 403.901 361 403.801 358.6L400.801 260.1C400.801 259.6 400.701 259 400.601 258.5C400.601 258.4 400.601 258.3 400.501 258.2C400.401 257.7 400.301 257.2 400.101 256.6V256.5C399.901 255.9 399.701 255.4 399.501 254.8V254.7C399.201 254.1 399.001 253.6 398.701 253.1C398.401 252.6 398.101 252.1 397.701 251.6L397.601 251.5C397.301 251.1 396.901 250.7 396.601 250.3C396.501 250.2 396.401 250.1 396.401 250C396.101 249.7 395.801 249.4 395.501 249.2C395.401 249.1 395.201 248.9 395.101 248.8C394.701 248.5 394.201 248.1 393.801 247.9L351.501 223.5C351.001 223.2 350.601 223 350.201 222.9C350.001 222.9 349.901 222.9 349.801 222.9Z" fill="url(#paint35_linear)"/>
<path d="M351.401 223.6C347.501 221.3 344.201 223.1 344.101 227.5L340.601 322.3C340.501 327 343.801 332.7 347.801 335.1L396.501 363.2C400.601 365.6 403.901 363.6 403.801 358.8L400.801 260.3C400.701 255.7 397.501 250.2 393.601 248L351.401 223.6Z" fill="url(#paint36_linear)"/>
<path d="M324.901 332.6L328.601 334.7L264.901 371.5V381.9L261.301 379.8V369.4L324.901 332.6Z" fill="url(#paint37_linear)"/>
<path d="M264.9 371.5V381.9L328.6 345.2V334.7L264.9 371.5Z" fill="url(#paint38_linear)"/>
<path d="M290.401 331.1L286.801 329L286.901 354.6L290.501 356.7L290.401 331.1Z" fill="url(#paint39_linear)"/>
<path d="M299.501 325.9L295.901 323.8L286.801 329L290.401 331.1L299.501 325.9Z" fill="#C6C6C6"/>
<path d="M290.4 331.1L290.5 356.7L299.6 351.5L299.5 325.9L290.4 331.1Z" fill="url(#paint40_linear)"/>
<path d="M257.701 338.1C257.801 338.4 257.901 338.6 258.001 338.8C258.001 338.8 258.001 338.9 258.101 338.9C258.201 339.1 258.401 339.3 258.601 339.5C258.701 339.6 258.901 339.7 259.001 339.8C259.101 339.9 259.301 340 259.401 340.1C260.001 340.4 260.701 340.7 261.401 340.9C261.501 340.9 261.601 341 261.701 341C262.401 341.2 263.201 341.2 263.901 341.2H264.001C264.801 341.2 265.601 341.1 266.301 340.9H266.401C267.201 340.7 267.901 340.5 268.501 340.1L323.101 308.6C323.701 308.2 324.201 307.8 324.501 307.4C324.801 307 325.001 306.5 325.001 306V310.2C325.001 311.1 324.301 312.1 323.101 312.8L268.501 344.3C268.201 344.5 267.901 344.6 267.601 344.7C267.301 344.8 267.101 344.9 266.801 345C266.701 345 266.501 345.1 266.401 345.1H266.301C266.201 345.1 266.201 345.1 266.101 345.1C265.901 345.1 265.701 345.2 265.501 345.2C265.301 345.2 265.101 345.3 264.901 345.3C264.701 345.3 264.501 345.3 264.301 345.3C264.201 345.3 264.101 345.3 264.101 345.3H264.001C263.901 345.3 263.801 345.3 263.701 345.3C263.501 345.3 263.201 345.3 263.001 345.3C262.701 345.3 262.401 345.2 262.201 345.2C262.101 345.2 262.001 345.1 261.901 345.1C261.801 345.1 261.701 345.1 261.601 345C261.401 345 261.201 344.9 261.001 344.9C260.501 344.7 260.001 344.5 259.601 344.3H259.501C259.401 344.2 259.301 344.1 259.201 344.1C259.101 344 258.901 343.9 258.801 343.8C258.701 343.7 258.501 343.5 258.401 343.4C258.401 343.4 258.401 343.3 258.301 343.3C258.301 343.3 258.301 343.2 258.201 343.2C258.201 343.1 258.101 343.1 258.101 343C258.001 342.9 258.001 342.8 257.901 342.6C257.901 342.6 257.901 342.6 257.901 342.5C257.901 342.5 257.901 342.5 257.901 342.4C257.901 342.3 257.801 342.2 257.801 342.2C257.801 342.1 257.801 342 257.801 341.8C257.801 341.8 257.801 341.8 257.801 341.7V337.5C257.601 337.6 257.601 337.8 257.701 338.1Z" fill="url(#paint41_linear)"/>
<path d="M259.501 334.7C257.001 336.1 257.001 338.5 259.501 340C262.001 341.4 266.101 341.4 268.601 340L323.201 308.5C325.701 307.1 325.701 304.7 323.201 303.3C320.701 301.9 316.601 301.8 314.101 303.3L259.501 334.7Z" fill="url(#paint42_linear)"/>
<path d="M256.201 375.8V375.9C256.301 376.3 256.601 376.7 256.801 377.1C256.801 377.2 256.901 377.2 256.901 377.3C257.201 377.7 257.501 378.1 257.901 378.4C258.201 378.6 258.501 378.8 258.801 379.1C259.101 379.3 259.301 379.5 259.601 379.7L322.901 416.5C323.701 416.9 324.501 417.3 325.401 417.6C325.701 417.7 326.001 417.8 326.401 417.9C326.801 418 327.201 418.1 327.701 418.2C328.201 418.3 328.701 418.4 329.301 418.5C329.401 418.5 329.601 418.5 329.701 418.6C330.401 418.7 331.101 418.7 331.901 418.7C332.001 418.7 332.101 418.7 332.301 418.7C333.001 418.7 333.701 418.7 334.401 418.6C334.501 418.6 334.601 418.6 334.701 418.6C335.401 418.5 336.101 418.4 336.801 418.2C336.901 418.2 337.001 418.1 337.201 418.1C337.801 417.9 338.401 417.8 339.001 417.6C339.101 417.6 339.201 417.5 339.301 417.5C340.001 417.2 340.601 416.9 341.201 416.6L404.901 379.8C406.201 379.1 407.101 378.2 407.701 377.3C408.301 376.4 408.601 375.4 408.601 374.5V387C408.601 388.9 407.301 390.8 404.801 392.3L341.101 429.1C340.501 429.4 339.901 429.7 339.301 430H339.201C339.101 430 339.001 430.1 338.901 430.1C338.501 430.2 338.201 430.4 337.801 430.5C337.601 430.6 337.401 430.6 337.201 430.7C337.101 430.7 337.001 430.8 336.801 430.8C336.701 430.8 336.601 430.9 336.501 430.9C336.101 431 335.701 431.1 335.201 431.1C335.001 431.1 334.901 431.1 334.701 431.2C334.601 431.2 334.501 431.2 334.401 431.2C334.201 431.2 334.101 431.2 333.901 431.3C333.501 431.3 333.101 431.4 332.601 431.4C332.501 431.4 332.301 431.4 332.201 431.4C332.101 431.4 332.001 431.4 331.901 431.4C331.701 431.4 331.501 431.4 331.301 431.4C330.801 431.4 330.301 431.4 329.901 431.3C329.801 431.3 329.801 431.3 329.701 431.3C329.601 431.3 329.401 431.3 329.301 431.2C328.901 431.2 328.601 431.1 328.201 431C328.001 431 327.901 430.9 327.701 430.9C327.301 430.8 326.801 430.7 326.401 430.6C326.201 430.5 325.901 430.5 325.701 430.4C325.601 430.4 325.501 430.3 325.401 430.3C324.501 430 323.701 429.6 322.901 429.2L259.601 392.4C259.501 392.4 259.501 392.3 259.401 392.3C259.201 392.2 259.001 392 258.801 391.8C258.501 391.6 258.201 391.4 257.901 391.1C257.901 391.1 257.801 391.1 257.801 391C257.501 390.7 257.201 390.4 257.001 390.1C256.901 390 256.901 390 256.901 389.9C256.801 389.8 256.801 389.8 256.801 389.7C256.701 389.6 256.601 389.5 256.601 389.4C256.501 389.2 256.401 388.9 256.301 388.7V388.6V388.5C256.301 388.3 256.201 388.2 256.201 388C256.201 387.8 256.101 387.5 256.101 387.3V387.2V374.7C256.001 375 256.101 375.4 256.201 375.8Z" fill="#5C22B7"/>
<path d="M259.801 369.2C254.801 372.1 254.801 376.8 259.801 379.7L323.101 416.5C328.101 419.4 336.201 419.4 341.201 416.5L404.901 379.7C409.901 376.8 410.001 372.1 405.001 369.2L341.701 332.4C336.701 329.5 328.601 329.5 323.501 332.4L259.801 369.2Z" fill="url(#paint43_linear)"/>
<path d="M276.601 447.6L273.901 466.1L265.001 464.9L266.501 446.5L276.601 447.6Z" fill="#FFC3CF"/>
<path d="M275 466.7L274.9 467.9C274.8 468.8 274.2 469.6 273.3 469.9C272.3 470.2 271 470.6 269.8 471.1C267.6 472 266 473.2 264.1 474.2C262.2 475.3 260.1 475.9 257.4 475.7C254.7 475.5 252.8 474.9 251.4 474.2C250 473.5 250.2 471.6 250.2 471.6L275 466.7Z" fill="#071E3D"/>
<path d="M274.501 461.8C274.501 461.8 276.601 467.3 273.801 468.3C271.001 469.3 268.001 470.1 265.401 471.8C262.801 473.5 260.701 475.4 255.601 474.5C250.501 473.6 248.201 471.7 251.801 469.5C255.401 467.3 259.401 464.9 261.901 462.6C264.301 460.4 265.301 459.3 265.301 459.3C265.301 459.3 268.801 460.3 269.301 464.4C269.301 464.4 272.801 464.8 274.501 461.8Z" fill="#1F4287"/>
<path d="M275.401 386.2C282.194 386.2 287.701 380.693 287.701 373.9C287.701 367.107 282.194 361.6 275.401 361.6C268.607 361.6 263.101 367.107 263.101 373.9C263.101 380.693 268.607 386.2 275.401 386.2Z" fill="white"/>
<path d="M371.1 343.1C356.7 351.1 336.6 361.7 325.3 367C309.2 374.5 293.9 380.6 279.9 385.4C276.2 378.1 272.4 370.9 268.7 363.6C283.3 353.6 298.9 343.5 315.5 333.4C329.1 325.2 342.4 317.6 355.3 310.6L371.1 343.1Z" fill="white"/>
<path d="M271.4 454.4C274.824 454.4 277.6 451.624 277.6 448.2C277.6 444.776 274.824 442 271.4 442C267.976 442 265.2 444.776 265.2 448.2C265.2 451.624 267.976 454.4 271.4 454.4Z" fill="white"/>
<path d="M276.501 453.3C279.001 444.4 281.701 432.9 282.801 427.5C285.301 415.6 287.201 406.7 287.801 395C288.201 387.1 288.001 380.6 287.701 376.4C279.501 375.6 271.301 374.9 263.101 374.1L265.301 452.1L276.501 453.3Z" fill="white"/>
<path d="M275.401 386.3C282.194 386.3 287.701 380.793 287.701 374C287.701 367.207 282.194 361.7 275.401 361.7C268.607 361.7 263.101 367.207 263.101 374C263.101 380.793 268.607 386.3 275.401 386.3Z" fill="white"/>
<path opacity="0.25" d="M324.5 367.4C311.7 373.4 299.5 378.3 288 382.5C288.1 386 288.1 390.3 287.8 395C287.2 406.7 285.3 415.6 282.8 427.5C281.6 432.9 278.9 444.4 276.5 453.3L275.1 453.2C273.8 454.2 272.1 454.6 270.4 454.3C272.5 427 275 397.9 276.1 385C276.5 380.8 279.1 377.1 283 375.5L328.7 355.9L324.5 367.4Z" fill="#808DA0"/>
<path d="M277.801 451L276.801 455L264.301 453.6L264.401 449.8C264.401 449.2 264.901 448.8 265.501 448.9L277.201 450.2C277.601 450.2 277.901 450.6 277.801 451Z" fill="#CAD2DD"/>
<g opacity="0.25">
<path opacity="0.25" d="M270.501 449.4L277.201 450.1C277.601 450.1 277.901 450.6 277.801 451L276.801 455L270.101 454.3L271.101 450.3C271.201 449.9 270.901 449.4 270.501 449.4Z" fill="#808DA0"/>
</g>
<path d="M310.9 478.2L308.1 496.7L299.2 495.4L300.7 477L310.9 478.2Z" fill="#FFC3CF"/>
<path d="M304.601 486.3C308.743 486.3 312.101 482.942 312.101 478.8C312.101 474.658 308.743 471.3 304.601 471.3C300.458 471.3 297.101 474.658 297.101 478.8C297.101 482.942 300.458 486.3 304.601 486.3Z" fill="white"/>
<path d="M311.201 483.9C313.301 472.8 315.901 458.3 316.801 451.6C318.801 436.9 319.801 426.9 319.501 412.7C319.301 403.1 318.301 395.3 317.601 390.1C307.601 389.9 297.601 389.8 287.601 389.6L297.901 484.8L311.201 483.9Z" fill="white"/>
<path d="M302.501 403.3C310.785 403.3 317.501 396.584 317.501 388.3C317.501 380.016 310.785 373.3 302.501 373.3C294.217 373.3 287.501 380.016 287.501 388.3C287.501 396.584 294.217 403.3 302.501 403.3Z" fill="white"/>
<path d="M302.501 403.3C310.785 403.3 317.501 396.584 317.501 388.3C317.501 380.016 310.785 373.3 302.501 373.3C294.217 373.3 287.501 380.016 287.501 388.3C287.501 396.584 294.217 403.3 302.501 403.3Z" fill="white"/>
<path d="M377.901 345.1C377.901 345.1 380.601 351 380.401 358.9C380.201 367.2 375.301 374.7 367.901 378.6C357.401 384.1 336.501 393.9 306.301 402.9L294.101 376L366.501 329.5L377.901 345.1Z" fill="white"/>
<path opacity="0.25" d="M380.401 358.8C380.201 367.1 375.301 374.6 367.901 378.5C358.901 383.2 342.201 391.1 318.701 398.9C319.101 402.9 319.401 407.6 319.501 412.7C319.801 426.9 318.701 436.9 316.801 451.6C316.001 457.5 314.001 469.3 312.101 479.5V479.6C312.101 480 312.001 480.4 311.901 480.8C311.701 481.8 311.501 482.9 311.301 483.9L310.001 484C308.301 485.7 305.901 486.7 303.301 486.2C304.301 462 303.301 420.4 302.801 400.8C302.601 394.2 306.301 388.2 312.301 385.4C322.801 380.4 339.401 372.1 349.301 365C364.601 354 346.601 345.2 346.601 345.2L371.101 335.6L378.001 345C377.901 345 380.601 350.9 380.401 358.8Z" fill="#808DA0"/>
<path d="M271.501 291.1C277.244 291.1 281.901 286.444 281.901 280.7C281.901 274.956 277.244 270.3 271.501 270.3C265.757 270.3 261.101 274.956 261.101 280.7C261.101 286.444 265.757 291.1 271.501 291.1Z" fill="#483F5E"/>
<path d="M325.401 258.3C333.188 258.3 339.501 251.987 339.501 244.2C339.501 236.413 333.188 230.1 325.401 230.1C317.614 230.1 311.301 236.413 311.301 244.2C311.301 251.987 317.614 258.3 325.401 258.3Z" fill="#483F5E"/>
<path d="M332.801 256.1L277.901 288.9L265.101 272.5L316.101 233.6L332.801 256.1Z" fill="#483F5E"/>
<path d="M255.301 247C255.301 247 253.801 242.1 250.701 238.5C247.601 234.9 242.201 232.9 236.601 233.8C231.001 234.7 228.601 238.4 230.701 238.5C232.801 238.6 237.801 239.6 240.801 244.3C243.901 249 245.701 251.8 248.601 252.3L255.301 247Z" fill="#FFC3CF"/>
<path d="M245.101 250.2C245.101 250.2 242.201 249.8 239.101 246.8C235.901 243.8 234.601 244.7 234.001 243.3C233.401 241.9 236.701 240.7 242.001 244.1L245.101 250.2Z" fill="#FFC3CF"/>
<path d="M248.801 250.9C247.501 251.1 246.201 250.9 245.001 250.4C245.101 251.3 245.401 252.2 245.901 253C246.001 253.3 246.201 253.5 246.401 253.7C248.701 256.5 252.801 257 255.601 254.8C258.401 252.5 258.901 248.4 256.601 245.6C256.001 244.8 255.101 244.1 254.201 243.7C254.401 245.1 254.101 246.5 253.301 247.8C252.901 248.5 252.401 249.1 251.701 249.6C250.901 250.3 249.901 250.8 248.801 250.9Z" fill="#483F5E"/>
<path d="M256.601 245.6L253.401 247.8C253.001 248.5 252.501 249.1 251.801 249.6C250.901 250.3 249.801 250.8 248.801 250.9L245.901 252.9C245.901 252.9 262.301 285.3 262.301 285.4L271.601 280.7L279.701 274.2L279.401 273.8L275.001 268.4L256.601 245.6Z" fill="#483F5E"/>
<path d="M271.501 291.1C277.244 291.1 281.901 286.444 281.901 280.7C281.901 274.956 277.244 270.3 271.501 270.3C265.757 270.3 261.101 274.956 261.101 280.7C261.101 286.444 265.757 291.1 271.501 291.1Z" fill="#483F5E"/>
<path d="M315.2 333.6C338.6 352.6 367.7 347.6 377.9 345C377.4 341.1 376.8 337.3 376.2 333.6C367.8 334.3 359.5 334.9 351.1 335.6C351.2 333.3 351.2 331.2 351.2 329.5C339.4 328.5 327.5 327.4 315.7 326.4C315.5 328.8 315.3 331.2 315.2 333.6Z" fill="#342E47"/>
<path d="M313.101 324.3C313.101 324.3 328.401 341.7 357.501 341.7C386.601 341.7 386.001 332.1 385.101 327C384.201 321.9 382.601 303.5 386.501 286.5C390.301 269.5 396.501 259.4 387.301 253.9C378.001 248.3 363.101 241.3 346.201 235.9C329.201 230.4 327.601 228.9 321.601 231.2C315.601 233.5 310.201 255.1 311.701 271.8C313.201 288.5 315.201 309.9 313.101 324.3Z" fill="#483F5E"/>
<path d="M337.101 291.4C337.001 290.1 337.001 288.8 336.901 287.5L338.701 289.4L340.601 287.6C340.601 290.2 340.701 292.9 340.701 295.4C340.801 299.4 340.801 303.2 340.801 306.1C340.801 315.5 339.101 338.9 339.001 339.1V339.2C337.701 338.9 336.501 338.5 335.301 338.1C335.601 335.5 338.001 309.1 337.101 291.4Z" fill="#605787"/>
<path d="M339.301 247.2L339.401 246.7L339.901 246.6L342.701 246.2L343.801 246.1L343.401 247.1C341.901 251.2 341.401 260.9 340.901 269.5C340.701 273.7 340.701 280 340.701 286.7C340.701 287 340.701 287.2 340.701 287.5L338.801 289.3L337.001 287.4C337.001 287.1 337.001 286.9 337.001 286.6C336.601 268.8 339.201 247.5 339.301 247.2Z" fill="#342E47"/>
<path d="M353.5 211L361 241.2C361 241.2 357 244.5 346 246L340.4 251.3L337.4 232.9L339.2 215.1L353.5 211Z" fill="#FFC3CF"/>
<path d="M346.101 241.7L340.501 251.4L347.901 245.6L346.101 241.7Z" fill="#201C2D"/>
<path d="M359.601 233.7L363.101 242C363.101 242 357.201 249.7 347.301 253.6L346.101 241.6C346.101 241.7 355.401 242.1 359.601 233.7Z" fill="#342E47"/>
<path d="M340.501 251.4L339.101 239.2L337.001 241.7L340.501 251.4Z" fill="#201C2D"/>
<path d="M339.101 239.2C339.101 239.2 337.601 235.2 337.801 230.1L336.101 232.5C336.101 232.5 333.901 237.9 335.301 248.8L339.101 239.2Z" fill="#342E47"/>
<path d="M364.1 275.5L363.9 277.6L351.9 275.4L352.2 273.4L357.2 274.3L358 275.3L359.5 274.7L364.1 275.5Z" fill="#342E47"/>
<path d="M352.201 275.8L363.601 277.9C363.501 279 363.401 282.9 363.301 285.7C363.301 286.1 363.101 286.4 362.801 286.6L359.701 288.2L358.901 288.6C358.301 288.9 357.701 289.1 357.101 289.1C356.101 289.1 355.101 288.7 354.401 288L352.201 285.8C352.001 285.6 351.901 285.4 351.901 285.1C351.801 283.5 351.801 279.7 352.201 275.8ZM351.901 275.4C351.501 279.5 351.501 283.6 351.501 285.1C351.501 285.5 351.601 285.8 351.901 286.1L354.101 288.3C354.901 289.1 356.001 289.5 357.001 289.5C357.701 289.5 358.301 289.3 358.901 289C360.301 288.2 361.901 287.4 362.801 286.9C363.201 286.7 363.501 286.2 363.501 285.8C363.601 282.5 363.901 277.8 363.901 277.8L351.901 275.4Z" fill="#342E47"/>
<path d="M339.2 266.5C339.642 266.5 340 266.142 340 265.7C340 265.258 339.642 264.9 339.2 264.9C338.759 264.9 338.4 265.258 338.4 265.7C338.4 266.142 338.759 266.5 339.2 266.5Z" fill="white"/>
<path d="M338.801 286.6C339.243 286.6 339.601 286.242 339.601 285.8C339.601 285.358 339.243 285 338.801 285C338.359 285 338.001 285.358 338.001 285.8C338.001 286.242 338.359 286.6 338.801 286.6Z" fill="white"/>
<path d="M339.2 307.1C339.642 307.1 340 306.742 340 306.3C340 305.858 339.642 305.5 339.2 305.5C338.759 305.5 338.4 305.858 338.4 306.3C338.4 306.742 338.759 307.1 339.2 307.1Z" fill="white"/>
<path d="M338 327.6C338.442 327.6 338.8 327.242 338.8 326.8C338.8 326.358 338.442 326 338 326C337.558 326 337.2 326.358 337.2 326.8C337.2 327.242 337.558 327.6 338 327.6Z" fill="white"/>
<path d="M309.301 494.6L309.401 497.2C309.401 497.5 309.401 497.8 309.201 498.1C308.901 498.8 308.301 500.4 308.101 502.1C307.801 504.4 307.701 507 304.901 508.4C302.101 509.8 299.901 510.7 295.901 510.5C291.901 510.3 292.401 507.1 292.401 507.1L303.201 505.3L309.301 494.6Z" fill="#071E3D"/>
<path d="M308.901 491.7C308.901 491.7 308.801 493.8 307.101 494.8C307.101 494.8 303.701 489.5 299.701 493.5C299.701 493.5 299.501 493 299.501 492.3C299.501 492.3 298.301 493.7 297.201 496.6C296.101 499.5 295.601 501 294.001 503.5C292.401 506 291.401 509 294.901 509.4C298.401 509.8 301.101 508.9 303.701 507.8C306.301 506.7 307.101 504.8 307.301 502.3C307.601 499.8 308.301 498.4 308.801 496.7C309.401 495.1 309.501 493.4 308.901 491.7Z" fill="#1F4287"/>
<path d="M312 482.7L310.9 487.2L296.7 485.6L296.8 481.2C296.8 480.6 297.4 480.1 298 480.1L311.3 481.6C311.8 481.7 312.2 482.2 312 482.7Z" fill="#CAD2DD"/>
<g opacity="0.25">
<path opacity="0.25" d="M303.7 480.8L311.3 481.6C311.8 481.7 312.1 482.1 312 482.6L310.9 487.1L303.3 486.3L304.4 481.8C304.5 481.4 304.2 480.9 303.7 480.8Z" fill="#808DA0"/>
</g>
<path d="M341.2 339C339.7 338.7 336.7 338.1 333.9 336.9C333.3 336.6 332.6 337 332.5 337.7L331.6 343C331.5 343.5 331.8 343.9 332.2 344.1C333.6 344.6 336.8 345.8 339.8 346.4C340.4 346.5 340.9 346.1 341 345.6L341.9 340.1C342.1 339.6 341.7 339.1 341.2 339Z" stroke="#F2F2F2" stroke-width="1.1225" stroke-miterlimit="10"/>
<path opacity="0.25" d="M351.501 341.4C353.401 341.6 355.401 341.7 357.501 341.7C386.601 341.7 386.001 332.1 385.101 327C384.201 321.9 382.601 303.5 386.501 286.5C388.701 276.9 391.601 269.5 392.001 263.8L374.901 273.8C374.901 273.8 369.001 296.2 371.901 324.9C372.301 328.7 370.601 332.4 367.501 334.6C364.201 337 359.001 339.7 351.501 341.4Z" fill="#010102"/>
<path d="M337.801 230.1C348.401 229.9 352.501 220.1 352.501 220.1L338.801 220.5L337.801 230.1Z" fill="#EAA7B7"/>
<path d="M356.1 216.7C356.1 216.7 354.7 216.8 349.2 219.8C347.9 225 337.9 226.3 335.8 224.6C333.7 222.9 332.8 217.2 333.3 211.2C333.8 205.2 331.8 198 335.3 193.6L352.3 191.4L360.5 194.7L356.1 216.7Z" fill="#FFC3CF"/>
<path d="M363.801 190.7C363.801 190.7 362.801 182.8 353.901 181.6C345.001 180.4 335.701 188.2 333.501 185.8C333.501 185.8 330.001 190.7 332.601 194.2C335.101 197.5 339.101 200.9 350.701 194.3C352.001 193.6 353.601 194.1 354.201 195.4C354.601 196.3 354.701 197.4 354.001 198.8C352.301 202.3 354.001 203.7 354.001 203.7C354.001 203.7 352.201 210.7 350.901 214.9C349.601 219.1 345.001 220.9 343.601 220.8C343.601 220.8 340.401 212.8 333.201 215.9C333.201 215.9 333.301 221.7 334.601 223.9C335.901 226.1 339.701 228 344.301 226.5C348.001 225.3 352.001 222.6 354.701 220.1C355.701 219.1 356.301 217.8 356.201 216.4C356.201 216.4 361.201 212.2 363.801 207.8C366.301 203.6 367.801 195.4 363.801 190.7Z" fill="#773E62"/>
<path d="M332.601 194.3C335.201 197.8 339.501 201.4 352.401 193.5C352.401 193.5 356.301 191 363.801 190.9C363.801 190.9 362.801 183 353.901 181.8C345.001 180.6 335.701 188.4 333.501 186C333.501 185.9 330.001 190.8 332.601 194.3Z" fill="#572041"/>
<path d="M355.801 216C354.101 214.1 353.501 211.4 354.401 209.1C355.001 207.7 356.001 206.5 357.801 206.4C361.501 206.1 363.101 210.6 356.301 216.6L355.801 216Z" fill="#FFC3CF"/>
<path d="M334.601 217.1C334.601 217.1 335.301 222.6 340.601 220.2L334.601 217.1Z" fill="#FFC3CF"/>
<path d="M405.501 379.4L409.101 381.5L345.401 418.2L345.501 428.7L341.901 426.6L341.801 416.1L405.501 379.4Z" fill="url(#paint44_linear)"/>
<path d="M345.4 418.2L345.5 428.7L409.2 391.9L409.1 381.5L345.4 418.2Z" fill="url(#paint45_linear)"/>
<path d="M371.001 377.9L367.401 375.8L367.501 401.4L371.101 403.5L371.001 377.9Z" fill="url(#paint46_linear)"/>
<path d="M380.101 372.6L376.501 370.5L367.401 375.8L371.001 377.9L380.101 372.6Z" fill="#C6C6C6"/>
<path d="M371.001 377.9L371.101 403.5L380.201 398.2L380.101 372.6L371.001 377.9Z" fill="url(#paint47_linear)"/>
<path d="M338.301 384.8C338.301 384.8 338.301 384.9 338.301 384.8C338.401 385.1 338.501 385.3 338.601 385.5C338.601 385.5 338.601 385.6 338.701 385.6C338.801 385.8 339.001 386 339.201 386.2C339.301 386.3 339.501 386.4 339.601 386.5C339.701 386.6 339.901 386.7 340.001 386.8C340.601 387.1 341.301 387.4 342.001 387.6C342.101 387.6 342.201 387.7 342.301 387.7C343.001 387.9 343.801 387.9 344.501 387.9H344.601C345.401 387.9 346.201 387.8 346.901 387.6H347.001C347.801 387.4 348.501 387.2 349.101 386.8L403.701 355.3C404.301 354.9 404.801 354.5 405.101 354.1C405.401 353.7 405.601 353.2 405.601 352.7V356.9C405.601 357.8 404.901 358.8 403.701 359.5L349.101 391C348.801 391.2 348.501 391.3 348.201 391.4C347.901 391.5 347.701 391.6 347.401 391.7C347.301 391.7 347.101 391.8 347.001 391.8H346.901C346.801 391.8 346.801 391.8 346.701 391.8C346.501 391.8 346.301 391.9 346.101 391.9C345.901 391.9 345.701 392 345.501 392C345.301 392 345.101 392 344.901 392C344.801 392 344.701 392 344.701 392H344.601C344.501 392 344.401 392 344.301 392C344.101 392 343.801 392 343.601 392C343.301 392 343.001 391.9 342.801 391.9C342.701 391.9 342.601 391.8 342.501 391.8C342.401 391.8 342.301 391.8 342.201 391.7C342.001 391.7 341.801 391.6 341.601 391.6C341.101 391.4 340.601 391.2 340.201 391H340.101C340.001 390.9 339.901 390.8 339.801 390.8C339.701 390.7 339.501 390.6 339.401 390.5C339.301 390.4 339.101 390.2 339.001 390.1C339.001 390.1 339.001 390 338.901 390C338.901 390 338.901 389.9 338.801 389.9C338.801 389.8 338.701 389.8 338.701 389.7C338.601 389.6 338.601 389.5 338.501 389.3C338.501 389.3 338.501 389.3 338.501 389.2C338.501 389.2 338.501 389.2 338.501 389.1C338.501 389 338.401 388.9 338.401 388.9C338.401 388.8 338.401 388.7 338.401 388.5C338.401 388.5 338.401 388.5 338.401 388.4V384.2C338.101 384.4 338.201 384.6 338.301 384.8Z" fill="url(#paint48_linear)"/>
<path d="M340.001 381.5C337.501 382.9 337.501 385.3 340.001 386.8C342.501 388.2 346.601 388.2 349.101 386.8L403.701 355.3C406.201 353.9 406.201 351.5 403.701 350.1C401.201 348.7 397.101 348.6 394.601 350.1L340.001 381.5Z" fill="url(#paint49_linear)"/>
<path d="M103.3 335.7C103.3 334.2 103.8 333.1 104.7 332.6L201.5 276.3C200.6 276.8 200.1 277.9 200.1 279.4L199.8 398.2L103 454.6L103.3 335.7Z" fill="#5C22B7"/>
<path d="M108.2 325.5C101.9 321.9 96.8 324.8 96.8 332L96.5 450.8L103 454.6L103.3 335.8C103.3 332.7 105.5 331.5 108.2 333L318.7 454.5C321.4 456 323.6 459.8 323.6 462.9L323.3 581.7L329.8 585.5L330.1 466.7C330.1 459.5 325 450.7 318.8 447.1L108.2 325.5Z" fill="white"/>
<path d="M196.9 268.4C199 267.2 201.8 267.4 205 269.2L415.5 390.7C421.8 394.3 426.8 403.1 426.8 410.3L426.5 529.1L329.7 585.4L330 466.6C330 459.4 324.9 450.6 318.7 447L108.2 325.5C105 323.7 102.2 323.5 100.1 324.7L196.9 268.4Z" fill="url(#paint50_linear)"/>
<path d="M361.401 340C367.145 340 371.801 335.344 371.801 329.6C371.801 323.856 367.145 319.2 361.401 319.2C355.657 319.2 351.001 323.856 351.001 329.6C351.001 335.344 355.657 340 361.401 340Z" fill="#483F5E"/>
<path d="M381.501 281.8C389.289 281.8 395.601 275.487 395.601 267.7C395.601 259.913 389.289 253.6 381.501 253.6C373.714 253.6 367.401 259.913 367.401 267.7C367.401 275.487 373.714 281.8 381.501 281.8Z" fill="#483F5E"/>
<path d="M394.701 272.6L371.401 332.2L351.301 327.1L367.701 265.1L394.701 272.6Z" fill="#483F5E"/>
<path d="M331.101 348.3C331.101 348.3 328.601 352.8 324.801 355.6C321.001 358.4 315.301 359.3 310.001 357.2C304.701 355.1 303.101 351 305.201 351.4C307.301 351.8 312.301 351.8 316.301 347.9C320.301 344 322.701 341.7 325.601 341.7L331.101 348.3Z" fill="#FFC3CF"/>
<path d="M321.9 343C321.9 343 319 342.8 315.3 345.1C311.6 347.4 310.4 346.2 309.6 347.5C308.8 348.8 311.7 350.6 317.6 348.4L321.9 343Z" fill="#FFC3CF"/>
<path d="M329.101 348.7C329.201 350 328.801 351.3 328.101 352.4C329.001 352.4 329.901 352.2 330.701 351.8C331.001 351.7 331.201 351.5 331.501 351.4C334.601 349.5 335.501 345.5 333.601 342.4C331.701 339.3 327.601 338.4 324.601 340.3C323.701 340.8 323.001 341.6 322.501 342.4C323.901 342.4 325.301 342.9 326.401 343.7C327.001 344.2 327.601 344.8 328.001 345.5C328.801 346.5 329.101 347.6 329.101 348.7Z" fill="#483F5E"/>
<path d="M324.701 340.3L326.501 343.7C327.101 344.2 327.701 344.8 328.101 345.5C328.701 346.5 329.001 347.6 329.101 348.7L330.801 351.9L365.001 339.5L361.401 329.7L355.901 320.9L355.501 321.1L349.601 324.8L324.701 340.3Z" fill="#483F5E"/>
<path d="M361.401 340C367.145 340 371.801 335.344 371.801 329.6C371.801 323.856 367.145 319.2 361.401 319.2C355.657 319.2 351.001 323.856 351.001 329.6C351.001 335.344 355.657 340 361.401 340Z" fill="#483F5E"/>
<path d="M187.501 228.7C188.201 228.3 189.301 228.3 190.401 229L304.101 294.6C306.301 295.9 308.201 299 308.101 301.6L307.901 387.5C307.901 388.8 307.401 389.7 306.701 390.1L303.501 392C304.201 391.6 304.701 390.7 304.701 389.4L304.901 303.5C304.901 300.9 303.101 297.8 300.901 296.5L187.201 230.9C186.101 230.2 185.001 230.2 184.301 230.6L187.501 228.7Z" fill="white"/>
<path d="M187.2 230.9C185 229.6 183.1 230.6 183.1 233.2L182.9 319.1C182.9 321.7 184.7 324.8 186.9 326.1L300.6 391.7C302.8 393 304.7 392 304.7 389.4L304.9 303.5C304.9 300.9 303.1 297.8 300.9 296.5L187.2 230.9Z" fill="url(#paint51_linear)"/>
<path d="M310.001 410.5L282.701 426.3L161.301 356.2L184.801 342.6H184.901L189.001 340.3C189.901 339.8 191.301 339.8 192.201 340.3L220.401 356.7L223.601 354.8H223.701L227.801 352.4C228.701 351.9 230.101 351.9 231.001 352.4L264.201 371.7C265.101 372.2 265.101 373.1 264.201 373.6L256.801 377.9L310.001 408.9C310.901 409.1 310.901 410 310.001 410.5Z" fill="url(#paint52_linear)"/>
<path d="M255.4 369.8L242.3 362.1L239.4 378.5L241.6 379.4L255.4 369.8Z" fill="url(#paint53_linear)"/>
<path d="M247.1 335.2L234.9 328L214.9 362.2C213.9 363.8 214.5 365.9 216.1 366.9L239.4 380.5L247.1 335.2Z" fill="url(#paint54_linear)"/>
<path d="M247.101 335.2L246.501 347.4L241.301 375.1C241.101 376.1 242.201 376.8 243.001 376.3L254.201 369.8C255.001 369.4 255.901 369.9 255.901 370.8V372.9L242.901 380.6C240.301 382.1 237.101 379.8 237.801 376.9L247.101 335.2Z" fill="white"/>
<path d="M346.7 182.5H346.6C346.7 182.5 346.8 182.5 346.9 182.6C347 182.6 347.1 182.6 347.2 182.6C347.4 182.6 347.6 182.7 347.8 182.7C347.8 182.6 347.9 182.6 348 182.5C348.1 182.4 348.1 182.4 348.2 182.3C348.1 182.3 348 182.3 347.9 182.3C347.8 182.3 347.8 182.3 347.7 182.3H347.6H347.5C347.1 182.5 346.9 182.5 346.7 182.5Z" fill="url(#paint55_linear)"/>
<path d="M364.3 204.1C364.3 208.6 361.1 214.1 357.2 216.3C356.9 216.5 356.5 218 356.5 218C356.5 218 353.9 217.4 352.9 217.1C351.2 216.6 350.1 214.9 350.1 212.2C350.1 207.7 353.3 202.2 357.2 200C359.6 198.6 361.7 198.8 362.9 200.1C363.3 200.5 365.5 202.8 365.5 202.8C365.5 202.8 364.3 203.2 364.3 204.1Z" fill="url(#paint56_linear)"/>
<path d="M366.6 206.3C366.6 210.4 363.8 215.3 360.2 217.3C356.7 219.3 353.8 217.7 353.8 213.6C353.8 209.5 356.6 204.6 360.2 202.6C363.8 200.6 366.6 202.2 366.6 206.3Z" fill="url(#paint57_linear)"/>
<path d="M346.5 182.6C346.5 182.6 346.6 182.6 346.5 182.6C346.7 182.6 346.8 182.6 346.8 182.7C347.3 182.6 347.8 182.5 348 182.4C348.1 182.4 348.3 182.4 348.4 182.4C348.5 182.4 348.6 182.4 348.6 182.4H348.7C348.8 182.4 349 182.5 349.2 182.5C349.4 182.5 349.5 182.6 349.7 182.6C349.9 182.7 350.2 182.8 350.4 182.9C350.5 183 350.7 183 350.8 183.1C350.8 183.1 350.9 183.1 350.9 183.2C350.9 183.2 351 183.2 351 183.3C351.1 183.4 351.2 183.4 351.3 183.5C351.4 183.6 351.6 183.7 351.7 183.8C351.9 183.9 352.1 184.1 352.3 184.3C352.4 184.4 352.6 184.5 352.7 184.7C352.8 184.7 352.8 184.8 352.9 184.9C353 185 353.2 185.1 353.3 185.3C353.6 185.6 353.8 185.8 354 186.1C354.5 186.7 354.9 187.3 355.4 187.9C355.6 188.2 355.8 188.5 356 188.9C356.2 189.2 356.4 189.6 356.6 189.9C356.7 190.1 356.8 190.3 356.9 190.5C357.4 191.6 357.9 192.8 358.3 194C358.5 194.6 358.7 195.2 358.8 195.8C359 196.4 359.1 197.1 359.2 197.7C359.2 197.9 359.3 198.1 359.3 198.3V198.4C359.6 200.2 359.7 201.9 359.6 203.6C359.6 203.9 359.6 204.1 359.6 204.4C359.6 204.5 359.6 204.5 359.6 204.6C359.6 204.8 359.6 205 359.6 205.2C359.6 205.3 359.6 205.5 359.6 205.6C359.6 205.8 359.6 205.9 359.5 206.1C359.5 206.2 359.5 206.2 359.5 206.3C359.5 206.5 359.4 206.6 359.4 206.8C359 209.1 358.2 210.9 357.2 212.1C357.1 212.2 361.1 210.4 361.1 210.4C362.1 209.1 362.9 207.3 363.4 205C363.8 202.8 363.8 200.4 363.6 198C363 193 361.1 187.9 358.2 184.5C357.8 184 357.4 183.6 356.9 183.2C354.4 180.9 351.9 180.3 349.8 181.2C349.6 181.2 347.5 182.1 346.5 182.6Z" fill="url(#paint58_linear)"/>
<path d="M346.7 182.5H346.6C346.7 182.5 346.8 182.5 346.9 182.6C347 182.6 347.1 182.6 347.2 182.6C347.4 182.6 347.6 182.5 347.8 182.5H347.9C348 182.5 348 182.5 348.1 182.5C348.9 182.5 349.7 182.7 350.5 183.1C350.9 183.3 351.2 183.5 351.6 183.7C352.1 184 352.5 184.4 353 184.8C356.2 187.8 358.5 192.9 359.3 198.2C359.7 200.7 359.7 203.3 359.4 205.6C359.4 205.7 359.5 205.8 359.5 205.8C359.6 205.9 359.7 206 359.7 206C359.7 205.9 359.7 205.9 359.7 205.8C359.7 205.6 359.8 205.5 359.8 205.3C359.8 205.2 359.8 205 359.8 204.9C359.8 204.7 359.8 204.5 359.8 204.3C359.8 204.2 359.8 204.2 359.8 204.1C359.8 203.8 359.8 203.6 359.8 203.3C359.9 201.6 359.7 199.9 359.5 198.1V198C359.5 197.8 359.4 197.6 359.4 197.4C359.3 196.8 359.1 196.1 359 195.5C358.9 194.9 358.7 194.3 358.5 193.7C358.1 192.5 357.6 191.3 357.1 190.2C357 190 356.9 189.8 356.8 189.6C356.6 189.2 356.4 188.9 356.2 188.6C356 188.3 355.8 187.9 355.6 187.6C355.2 187 354.7 186.3 354.2 185.8C354 185.5 353.7 185.3 353.5 185C353.4 184.9 353.2 184.7 353.1 184.6C353 184.5 353 184.5 352.9 184.5C352.8 184.4 352.6 184.2 352.5 184.1C352.3 183.9 352.1 183.8 351.9 183.6C351.8 183.5 351.6 183.4 351.5 183.3C351.4 183.2 351.3 183.2 351.2 183.1C351.2 183.1 351.1 183.1 351.1 183C351.1 183 351 183 351 182.9C350.9 182.8 350.7 182.7 350.6 182.7C350.4 182.6 350.1 182.5 349.9 182.4C349.7 182.3 349.6 182.3 349.4 182.3C349.2 182.3 349.1 182.2 348.9 182.2H348.8C348.7 182.2 348.6 182.2 348.6 182.2C348.5 182.2 348.5 182.2 348.4 182.2C348.3 182.2 348.3 182.2 348.2 182.2C348.1 182.2 348 182.2 347.9 182.2C347.8 182.2 347.8 182.2 347.7 182.2H347.6H347.5C347.1 182.5 346.9 182.5 346.7 182.5Z" fill="url(#paint59_linear)"/>
<path d="M366.6 207.1C366.6 210.7 364.1 215 361 216.8C357.9 218.6 355.4 217.1 355.4 213.6C355.4 210.1 357.9 205.7 361 203.9C364.1 202.1 366.6 203.5 366.6 207.1Z" fill="url(#paint60_linear)"/>
<path d="M366.2 208.2C366.2 211.1 364.2 214.6 361.7 216C359.2 217.4 357.2 216.3 357.2 213.4C357.2 210.5 359.2 207 361.7 205.6C364.2 204.2 366.2 205.3 366.2 208.2Z" fill="url(#paint61_linear)"/>
<g opacity="0.25">
<path opacity="0.25" d="M180.5 107.3C181.3 106.8 182 107.2 182 108.1L182.1 150.1C182.1 151 181.5 152.2 180.6 152.6L153.8 168.1C153 168.6 152.3 168.2 152.3 167.3L152.2 125.3C152.2 124.4 152.8 123.2 153.7 122.8L180.5 107.3Z" fill="url(#paint62_linear)"/>
</g>
<g opacity="0.5">
<path opacity="0.5" d="M185.7 110.4C186.5 109.9 187.2 110.3 187.2 111.2L187.3 153.2C187.3 154.1 186.7 155.3 185.8 155.7L159 171.1C158.2 171.6 157.5 171.2 157.5 170.3L157.4 128.3C157.4 127.4 158 126.2 158.9 125.8L185.7 110.4Z" fill="url(#paint63_linear)"/>
</g>
<path d="M464.5 186.8V194.5L457.3 190.3V182.6L464.5 186.8Z" fill="#43F2FF"/>
<path d="M421.5 162.6L428.7 166.8L428.6 200L421.4 195.8V191.7C419 192.6 415.8 192.2 412.4 190.2C404.6 185.7 398.3 174.8 398.3 165.8C398.3 156.9 404.7 153.2 412.5 157.7C415.9 159.7 419 162.9 421.4 166.6L421.5 162.6ZM412.5 182C416.3 184.2 419.4 182.4 419.4 178.1C419.4 173.8 416.3 168.4 412.6 166.3C408.8 164.1 405.7 165.9 405.7 170.2C405.7 174.5 408.7 179.8 412.5 182Z" fill="#43F2FF"/>
<path d="M438.999 150.4C438.999 150.4 438.499 150.1 437.599 149.6C449.499 156.5 459.999 169.9 465.599 184.2L456.699 179.1C452.799 171.7 447.299 164.9 441.199 160.3V170.1L440.999 212V218.1C445.599 220 449.799 220.2 453.199 219.1L463.299 224.9C457.299 230.4 447.899 230.7 437.399 224.7C426.899 218.6 417.499 207.4 411.499 195L421.599 200.8C424.999 206 429.199 210.5 433.799 213.9V207.8L433.899 165.9V156.1C427.699 153.5 422.199 154 418.299 156.9L409.399 151.8C415.099 144.1 425.599 142.7 437.499 149.6C438.499 150.1 438.899 150.4 438.999 150.4Z" fill="#9646FF"/>
<path d="M464.5 197.6L464.4 220.7L457.2 216.5L457.3 193.4L464.5 197.6Z" fill="#43F2FF"/>
<path d="M454 183.9L453.9 212.2C449.6 206.9 446.7 199.9 446.7 193.9C446.8 187.8 449.7 184.2 454 183.9Z" fill="#43F2FF"/>
<path d="M467.8 191.8C472.1 197.1 475 204 475 210.1C475 216.2 472 219.8 467.7 220.1L467.8 191.8Z" fill="#43F2FF"/>
</g>
<defs>
<linearGradient id="paint0_linear" x1="277.625" y1="81.5959" x2="303.213" y2="125.914" gradientUnits="userSpaceOnUse">
<stop stop-color="#C396FC"/>
<stop offset="1" stop-color="#B0EEFF"/>
</linearGradient>
<linearGradient id="paint1_linear" x1="405.755" y1="42.8496" x2="431.342" y2="87.1679" gradientUnits="userSpaceOnUse">
<stop stop-color="#C396FC"/>
<stop offset="1" stop-color="#B0EEFF"/>
</linearGradient>
<linearGradient id="paint2_linear" x1="465.736" y1="291.177" x2="491.324" y2="335.495" gradientUnits="userSpaceOnUse">
<stop stop-color="#C396FC"/>
<stop offset="1" stop-color="#B0EEFF"/>
</linearGradient>
<linearGradient id="paint3_linear" x1="559.307" y1="190.004" x2="584.894" y2="234.323" gradientUnits="userSpaceOnUse">
<stop stop-color="#C396FC"/>
<stop offset="1" stop-color="#B0EEFF"/>
</linearGradient>
<linearGradient id="paint4_linear" x1="39.2761" y1="360.929" x2="86.1176" y2="360.929" gradientUnits="userSpaceOnUse">
<stop stop-color="#3E007F" stop-opacity="0.5"/>
<stop offset="1" stop-color="#3E007F" stop-opacity="0.1"/>
</linearGradient>
<linearGradient id="paint5_linear" x1="33.116" y1="345.999" x2="79.6774" y2="345.999" gradientUnits="userSpaceOnUse">
<stop stop-color="#635BFE"/>
<stop offset="1" stop-color="#C396FC"/>
</linearGradient>
<linearGradient id="paint6_linear" x1="32.9759" y1="322.412" x2="79.8175" y2="322.412" gradientUnits="userSpaceOnUse">
<stop stop-color="#C396FC"/>
<stop offset="1" stop-color="#B0EEFF"/>
</linearGradient>
<linearGradient id="paint7_linear" x1="56.9335" y1="231.492" x2="20.7878" y2="231.492" gradientUnits="userSpaceOnUse">
<stop stop-color="#C396FC"/>
<stop offset="1" stop-color="#B0EEFF"/>
</linearGradient>
<linearGradient id="paint8_linear" x1="61.117" y1="268.019" x2="27.1798" y2="268.019" gradientUnits="userSpaceOnUse">
<stop stop-color="#635BFE"/>
<stop offset="1" stop-color="#C396FC"/>
</linearGradient>
<linearGradient id="paint9_linear" x1="55.1848" y1="241.603" x2="27.5287" y2="241.603" gradientUnits="userSpaceOnUse">
<stop stop-color="#635BFE"/>
<stop offset="1" stop-color="#C396FC"/>
</linearGradient>
<linearGradient id="paint10_linear" x1="53.0518" y1="253.85" x2="2.41109" y2="253.85" gradientUnits="userSpaceOnUse">
<stop stop-color="#C396FC"/>
<stop offset="1" stop-color="#B0EEFF"/>
</linearGradient>
<linearGradient id="paint11_linear" x1="55.7805" y1="279.558" x2="11.9009" y2="279.558" gradientUnits="userSpaceOnUse">
<stop stop-color="#635BFE"/>
<stop offset="1" stop-color="#C396FC"/>
</linearGradient>
<linearGradient id="paint12_linear" x1="52.7901" y1="264.624" x2="14.5885" y2="264.624" gradientUnits="userSpaceOnUse">
<stop stop-color="#635BFE"/>
<stop offset="1" stop-color="#C396FC"/>
</linearGradient>
<linearGradient id="paint13_linear" x1="57.6421" y1="253.85" x2="108.283" y2="253.85" gradientUnits="userSpaceOnUse">
<stop stop-color="#C396FC"/>
<stop offset="1" stop-color="#B0EEFF"/>
</linearGradient>
<linearGradient id="paint14_linear" x1="54.9134" y1="279.558" x2="98.7931" y2="279.558" gradientUnits="userSpaceOnUse">
<stop stop-color="#635BFE"/>
<stop offset="1" stop-color="#C396FC"/>
</linearGradient>
<linearGradient id="paint15_linear" x1="57.9037" y1="264.624" x2="96.1054" y2="264.624" gradientUnits="userSpaceOnUse">
<stop stop-color="#635BFE"/>
<stop offset="1" stop-color="#C396FC"/>
</linearGradient>
<linearGradient id="paint16_linear" x1="54.3574" y1="294.25" x2="0.00038782" y2="294.25" gradientUnits="userSpaceOnUse">
<stop stop-color="#C396FC"/>
<stop offset="1" stop-color="#B0EEFF"/>
</linearGradient>
<linearGradient id="paint17_linear" x1="52.1695" y1="287.467" x2="0" y2="287.467" gradientUnits="userSpaceOnUse">
<stop stop-color="#635BFE"/>
<stop offset="1" stop-color="#C396FC"/>
</linearGradient>
<linearGradient id="paint18_linear" x1="56.6139" y1="294.25" x2="110.971" y2="294.25" gradientUnits="userSpaceOnUse">
<stop stop-color="#C396FC"/>
<stop offset="1" stop-color="#B0EEFF"/>
</linearGradient>
<linearGradient id="paint19_linear" x1="58.8019" y1="287.467" x2="110.971" y2="287.467" gradientUnits="userSpaceOnUse">
<stop stop-color="#635BFE"/>
<stop offset="1" stop-color="#C396FC"/>
</linearGradient>
<linearGradient id="paint20_linear" x1="47.051" y1="306.236" x2="14.6851" y2="306.236" gradientUnits="userSpaceOnUse">
<stop stop-color="#C396FC"/>
<stop offset="1" stop-color="#B0EEFF"/>
</linearGradient>
<linearGradient id="paint21_linear" x1="45.7481" y1="302.197" x2="14.6847" y2="302.197" gradientUnits="userSpaceOnUse">
<stop stop-color="#635BFE"/>
<stop offset="1" stop-color="#C396FC"/>
</linearGradient>
<linearGradient id="paint22_linear" x1="65.972" y1="306.236" x2="98.3379" y2="306.236" gradientUnits="userSpaceOnUse">
<stop stop-color="#C396FC"/>
<stop offset="1" stop-color="#B0EEFF"/>
</linearGradient>
<linearGradient id="paint23_linear" x1="67.2747" y1="302.197" x2="98.338" y2="302.197" gradientUnits="userSpaceOnUse">
<stop stop-color="#635BFE"/>
<stop offset="1" stop-color="#C396FC"/>
</linearGradient>
<linearGradient id="paint24_linear" x1="62.4639" y1="324.052" x2="59.1841" y2="324.052" gradientUnits="userSpaceOnUse">
<stop stop-color="#94C2FC"/>
<stop offset="1" stop-color="#5AA6F9"/>
</linearGradient>
<linearGradient id="paint25_linear" x1="53.6775" y1="323.169" x2="51.4638" y2="323.169" gradientUnits="userSpaceOnUse">
<stop stop-color="#94C2FC"/>
<stop offset="1" stop-color="#5AA6F9"/>
</linearGradient>
<linearGradient id="paint26_linear" x1="52.8394" y1="328.435" x2="49.5597" y2="328.435" gradientUnits="userSpaceOnUse">
<stop stop-color="#94C2FC"/>
<stop offset="1" stop-color="#5AA6F9"/>
</linearGradient>
<linearGradient id="paint27_linear" x1="46.9169" y1="323.519" x2="43.6371" y2="323.519" gradientUnits="userSpaceOnUse">
<stop stop-color="#94C2FC"/>
<stop offset="1" stop-color="#5AA6F9"/>
</linearGradient>
<linearGradient id="paint28_linear" x1="70.0314" y1="323.519" x2="67.8178" y2="323.519" gradientUnits="userSpaceOnUse">
<stop stop-color="#94C2FC"/>
<stop offset="1" stop-color="#5AA6F9"/>
</linearGradient>
<linearGradient id="paint29_linear" x1="55.8913" y1="324.809" x2="53.6777" y2="324.809" gradientUnits="userSpaceOnUse">
<stop stop-color="#94C2FC"/>
<stop offset="1" stop-color="#5AA6F9"/>
</linearGradient>
<linearGradient id="paint30_linear" x1="49.6491" y1="320.452" x2="47.4354" y2="320.452" gradientUnits="userSpaceOnUse">
<stop stop-color="#94C2FC"/>
<stop offset="1" stop-color="#5AA6F9"/>
</linearGradient>
<linearGradient id="paint31_linear" x1="59.1839" y1="329.215" x2="56.9703" y2="329.215" gradientUnits="userSpaceOnUse">
<stop stop-color="#94C2FC"/>
<stop offset="1" stop-color="#5AA6F9"/>
</linearGradient>
<linearGradient id="paint32_linear" x1="64.6772" y1="319.345" x2="62.4637" y2="319.345" gradientUnits="userSpaceOnUse">
<stop stop-color="#94C2FC"/>
<stop offset="1" stop-color="#5AA6F9"/>
</linearGradient>
<linearGradient id="paint33_linear" x1="64.9097" y1="328.109" x2="62.6962" y2="328.109" gradientUnits="userSpaceOnUse">
<stop stop-color="#94C2FC"/>
<stop offset="1" stop-color="#5AA6F9"/>
</linearGradient>
<linearGradient id="paint34_linear" x1="97.5347" y1="490.014" x2="495.866" y2="490.014" gradientUnits="userSpaceOnUse">
<stop stop-color="#3E007F" stop-opacity="0.5"/>
<stop offset="1" stop-color="#3E007F" stop-opacity="0.1"/>
</linearGradient>
<linearGradient id="paint35_linear" x1="346.208" y1="290.509" x2="412.889" y2="290.509" gradientUnits="userSpaceOnUse">
<stop stop-color="#635BFE"/>
<stop offset="1" stop-color="#C396FC"/>
</linearGradient>
<linearGradient id="paint36_linear" x1="349.382" y1="335.965" x2="398.556" y2="250.794" gradientUnits="userSpaceOnUse">
<stop stop-color="#6813B7"/>
<stop offset="1" stop-color="#52029C"/>
</linearGradient>
<linearGradient id="paint37_linear" x1="261.255" y1="357.278" x2="328.558" y2="357.278" gradientUnits="userSpaceOnUse">
<stop stop-color="#635BFE"/>
<stop offset="1" stop-color="#C396FC"/>
</linearGradient>
<linearGradient id="paint38_linear" x1="264.87" y1="358.328" x2="328.587" y2="358.328" gradientUnits="userSpaceOnUse">
<stop stop-color="#C396FC"/>
<stop offset="1" stop-color="#B0EEFF"/>
</linearGradient>
<linearGradient id="paint39_linear" x1="288.649" y1="356.716" x2="288.649" y2="329.023" gradientUnits="userSpaceOnUse">
<stop stop-color="#635BFE"/>
<stop offset="1" stop-color="#C396FC"/>
</linearGradient>
<linearGradient id="paint40_linear" x1="259.872" y1="385.73" x2="326.142" y2="301.918" gradientUnits="userSpaceOnUse">
<stop stop-color="#C396FC"/>
<stop offset="1" stop-color="#B0EEFF"/>
</linearGradient>
<linearGradient id="paint41_linear" x1="249.192" y1="374.75" x2="316.297" y2="294.001" gradientUnits="userSpaceOnUse">
<stop stop-color="#C396FC"/>
<stop offset="1" stop-color="#B0EEFF"/>
</linearGradient>
<linearGradient id="paint42_linear" x1="257.566" y1="321.62" x2="324.978" y2="321.62" gradientUnits="userSpaceOnUse">
<stop stop-color="#635BFE"/>
<stop offset="1" stop-color="#C396FC"/>
</linearGradient>
<linearGradient id="paint43_linear" x1="256.004" y1="374.489" x2="408.603" y2="374.489" gradientUnits="userSpaceOnUse">
<stop stop-color="#6813B7"/>
<stop offset="1" stop-color="#52029C"/>
</linearGradient>
<linearGradient id="paint44_linear" x1="341.835" y1="404.038" x2="409.137" y2="404.038" gradientUnits="userSpaceOnUse">
<stop stop-color="#635BFE"/>
<stop offset="1" stop-color="#C396FC"/>
</linearGradient>
<linearGradient id="paint45_linear" x1="345.45" y1="405.088" x2="409.167" y2="405.088" gradientUnits="userSpaceOnUse">
<stop stop-color="#C396FC"/>
<stop offset="1" stop-color="#B0EEFF"/>
</linearGradient>
<linearGradient id="paint46_linear" x1="369.229" y1="403.476" x2="369.229" y2="375.783" gradientUnits="userSpaceOnUse">
<stop stop-color="#635BFE"/>
<stop offset="1" stop-color="#C396FC"/>
</linearGradient>
<linearGradient id="paint47_linear" x1="340.452" y1="432.49" x2="406.722" y2="348.678" gradientUnits="userSpaceOnUse">
<stop stop-color="#C396FC"/>
<stop offset="1" stop-color="#B0EEFF"/>
</linearGradient>
<linearGradient id="paint48_linear" x1="329.771" y1="421.51" x2="396.876" y2="340.761" gradientUnits="userSpaceOnUse">
<stop stop-color="#C396FC"/>
<stop offset="1" stop-color="#B0EEFF"/>
</linearGradient>
<linearGradient id="paint49_linear" x1="338.146" y1="368.38" x2="405.558" y2="368.38" gradientUnits="userSpaceOnUse">
<stop stop-color="#635BFE"/>
<stop offset="1" stop-color="#C396FC"/>
</linearGradient>
<linearGradient id="paint50_linear" x1="205.074" y1="263.713" x2="375.565" y2="559.012" gradientUnits="userSpaceOnUse">
<stop stop-color="#C396FC"/>
<stop offset="1" stop-color="#B0EEFF"/>
</linearGradient>
<linearGradient id="paint51_linear" x1="223.233" y1="347.053" x2="264.514" y2="275.552" gradientUnits="userSpaceOnUse">
<stop stop-color="#635BFE"/>
<stop offset="1" stop-color="#C396FC"/>
</linearGradient>
<linearGradient id="paint52_linear" x1="228.859" y1="395.175" x2="247.984" y2="362.048" gradientUnits="userSpaceOnUse">
<stop stop-color="#3E007F" stop-opacity="0"/>
<stop offset="1" stop-color="#3E007F" stop-opacity="0.2"/>
</linearGradient>
<linearGradient id="paint53_linear" x1="239.392" y1="370.764" x2="255.402" y2="370.764" gradientUnits="userSpaceOnUse">
<stop stop-color="#635BFE"/>
<stop offset="1" stop-color="#C396FC"/>
</linearGradient>
<linearGradient id="paint54_linear" x1="226.271" y1="372.95" x2="247.882" y2="335.519" gradientUnits="userSpaceOnUse">
<stop stop-color="#C396FC"/>
<stop offset="1" stop-color="#B0EEFF"/>
</linearGradient>
<linearGradient id="paint55_linear" x1="348.066" y1="182.595" x2="346.584" y2="182.595" gradientUnits="userSpaceOnUse">
<stop stop-color="#6FCF97"/>
<stop offset="1" stop-color="#5AA6F9"/>
</linearGradient>
<linearGradient id="paint56_linear" x1="350.166" y1="208.583" x2="365.531" y2="208.583" gradientUnits="userSpaceOnUse">
<stop stop-color="#635BFE"/>
<stop offset="1" stop-color="#C396FC"/>
</linearGradient>
<linearGradient id="paint57_linear" x1="353.9" y1="209.961" x2="366.626" y2="209.961" gradientUnits="userSpaceOnUse">
<stop stop-color="#C396FC"/>
<stop offset="1" stop-color="#B0EEFF"/>
</linearGradient>
<linearGradient id="paint58_linear" x1="348.3" y1="181.542" x2="363.93" y2="208.613" gradientUnits="userSpaceOnUse">
<stop stop-color="#C396FC"/>
<stop offset="1" stop-color="#B0EEFF"/>
</linearGradient>
<linearGradient id="paint59_linear" x1="348.576" y1="181.434" x2="362.015" y2="204.71" gradientUnits="userSpaceOnUse">
<stop stop-color="#635BFE"/>
<stop offset="1" stop-color="#C396FC"/>
</linearGradient>
<linearGradient id="paint60_linear" x1="355.365" y1="210.364" x2="366.603" y2="210.364" gradientUnits="userSpaceOnUse">
<stop stop-color="#635BFE"/>
<stop offset="1" stop-color="#C396FC"/>
</linearGradient>
<linearGradient id="paint61_linear" x1="357.205" y1="210.788" x2="366.203" y2="210.788" gradientUnits="userSpaceOnUse">
<stop stop-color="#C396FC"/>
<stop offset="1" stop-color="#B0EEFF"/>
</linearGradient>
<linearGradient id="paint62_linear" x1="152.89" y1="123.449" x2="181.389" y2="151.947" gradientUnits="userSpaceOnUse">
<stop stop-color="#C396FC"/>
<stop offset="1" stop-color="#B0EEFF"/>
</linearGradient>
<linearGradient id="paint63_linear" x1="158.086" y1="126.508" x2="186.584" y2="155.006" gradientUnits="userSpaceOnUse">
<stop stop-color="#C396FC"/>
<stop offset="1" stop-color="#B0EEFF"/>
</linearGradient>
<clipPath id="clip0">
<rect width="590.3" height="585.5" fill="white"/>
</clipPath>
</defs>
</svg>
