<svg width="26" height="auto" viewBox="0 0 210 302" fill="none" xmlns="http://www.w3.org/2000/svg"><path d="M29.186 0C32.3135 12.4328 41.9107 23.8229 55.5404 23.7514C68.6523 23.9112 82.5514 14.6696 85.9272 1.78693L90.0103 2.80022C89.021 6.39663 87.3239 9.75994 85.0181 12.6935C77.0204 23.0997 63.0455 29.0911 50.0557 26.2573C41.536 24.4493 34.637 17.9996 30.6929 10.4735C29.0287 7.33666 27.7847 3.99484 26.9929 0.533974L29.186 0Z" fill="#BB86FC"></path><path d="M60.3895 37.9038C45.215 44.6311 26.3363 53.3008 10.442 43.6598C2.48224 38.7532 -0.742077 29.314 0.141874 20.3373C0.282554 18.5692 0.607008 16.8205 1.11001 15.1195L3.4167 15.7838C2.61292 18.9149 2.3805 22.1651 2.73059 25.3785C4.44377 42.512 20.7211 47.0403 35.4326 43.2772C43.4976 41.175 51.0322 37.7104 58.6089 34.0987L60.3895 37.8828" fill="#BB86FC"></path><path d="M128.761 197.958L113.671 205.799L70.2055 291.66L130.087 221.717L126.585 215.327L139.141 208.091L128.761 197.958Z" fill="#BB86FC"></path><path d="M31.5727 175.236L43.5271 195.187L25.1745 207.363L45.699 262.838L6.94409 203.991L31.5727 175.236Z" fill="#BB86FC"></path><path d="M67.6294 43.8406L62.1574 44.6353L24.7873 96.885L35.8703 98.8022L69.1238 86.0289L22.6574 152.12L53.3473 208.658L50.3671 301.477C50.3671 301.477 75.9428 202.251 76.5784 203.121C77.214 203.991 112.812 204.613 112.812 204.613L127.734 193.968L164.818 228.024L175.901 224.215L209.996 287.232L186.98 210.163L165.453 202.074L168.648 180.572L141.995 147.554L161.817 131.375V116.899L150.308 120.09L140.522 145.851L119.206 159.045L88.537 135.419L94.0764 78.7887L69.3553 49.8363L87.6952 46.8553L84.6981 29.2509L67.6294 43.8406Z" fill="#BB86FC"></path><path d="M55.2836 68.5927C55.6724 68.9807 55.9372 69.4752 56.0446 70.0135C56.1519 70.5519 56.097 71.1099 55.8868 71.6171C55.6766 72.1243 55.3206 72.5579 54.8636 72.8629C54.4067 73.1679 53.8695 73.3307 53.32 73.3307C52.7704 73.3307 52.2332 73.1679 51.7763 72.8629C51.3194 72.5579 50.9633 72.1243 50.7531 71.6171C50.5429 71.1099 50.488 70.5519 50.5954 70.0135C50.7028 69.4752 50.9676 68.9807 51.3563 68.5927C51.614 68.3348 51.9201 68.1301 52.257 67.9905C52.594 67.8509 52.9552 67.779 53.32 67.779C53.6848 67.779 54.046 67.8509 54.3829 67.9905C54.7199 68.1301 55.0259 68.3348 55.2836 68.5927Z" fill="#000"></path></svg>