<svg width="25" height="25" viewBox="0 0 25 25" fill="none" xmlns="http://www.w3.org/2000/svg">
<path d="M7.00246 19.6235C5.9279 19.6221 4.89474 19.2088 4.11559 18.4688C3.33644 17.7288 2.87057 16.7183 2.81384 15.6452C2.75712 14.5721 3.11384 13.5181 3.81063 12.7001C4.50741 11.8821 5.49123 11.3622 6.55966 11.2475C6.24507 10.0138 6.43345 8.70558 7.08338 7.61074C7.7333 6.5159 8.79153 5.72409 10.0253 5.40949C11.259 5.09489 12.5672 5.28328 13.662 5.9332C14.7569 6.58313 15.5487 7.64136 15.8633 8.87509C16.597 8.77293 17.3439 8.82283 18.0575 9.02169C18.7712 9.22055 19.4362 9.56412 20.0114 10.031C20.5865 10.4979 21.0595 11.0782 21.4008 11.7357C21.7421 12.3932 21.9444 13.1139 21.9952 13.853C22.0461 14.5921 21.9443 15.3337 21.6962 16.0317C21.4482 16.7298 21.0591 17.3693 20.5533 17.9106C20.0475 18.4518 19.4357 18.8832 18.756 19.1779C18.0763 19.4726 17.3433 19.6242 16.6025 19.6235H7.00246Z" fill="white"/>
</svg>
