<svg width="20" height="18" viewBox="0 0 20 18" fill="none" xmlns="http://www.w3.org/2000/svg">
<path d="M8.0114 7.27648H1.55204C1.41319 7.27648 1.27578 7.24902 1.14757 7.19569C1.01936 7.14236 0.90295 7.06422 0.805059 6.96574C0.707168 6.86726 0.629588 6.75039 0.577029 6.62186C0.52447 6.49334 0.497962 6.35569 0.498798 6.21684C0.497962 6.07798 0.52447 5.94034 0.577029 5.81181C0.629588 5.68328 0.707168 5.56641 0.805059 5.46793C0.90295 5.36944 1.01936 5.29129 1.14757 5.23796C1.27578 5.18463 1.41319 5.15719 1.55204 5.15719H8.0114C8.32499 5.1572 8.62589 5.03304 8.84823 4.81189C9.07057 4.59074 9.19634 4.29057 9.19802 3.97698C9.19802 3.66229 9.07292 3.3605 8.8504 3.13798C8.62788 2.91545 8.32609 2.79043 8.0114 2.79043H6.05719C5.77615 2.79043 5.5066 2.67879 5.30788 2.48007C5.10916 2.28134 4.99743 2.01183 4.99743 1.7308C4.99743 1.44976 5.10916 1.18023 5.30788 0.981508C5.5066 0.782786 5.77615 0.671143 6.05719 0.671143H8.0114C8.88706 0.672823 9.72639 1.02186 10.345 1.64165C10.9636 2.26143 11.311 3.10131 11.311 3.97698C11.3093 4.85154 10.9611 5.68981 10.3427 6.30822C9.72425 6.92664 8.88596 7.2748 8.0114 7.27648V7.27648Z" fill="white"/>
<path d="M15.7526 10.3285H1.55204C1.41319 10.3285 1.27578 10.301 1.14757 10.2477C1.01936 10.1944 0.90295 10.1162 0.805059 10.0178C0.707168 9.91927 0.629588 9.8024 0.577029 9.67388C0.52447 9.54535 0.497962 9.4077 0.498798 9.26885C0.497962 9.12999 0.52447 8.99235 0.577029 8.86382C0.629588 8.7353 0.707168 8.61843 0.805059 8.51995C0.90295 8.42147 1.01936 8.34331 1.14757 8.28998C1.27578 8.23665 1.41319 8.2092 1.55204 8.2092H15.7526C16.1033 8.20921 16.4395 8.07036 16.688 7.82303C16.9365 7.5757 17.077 7.24002 17.0787 6.88941C17.077 6.53879 16.9365 6.20311 16.688 5.95578C16.4395 5.70845 16.1033 5.5696 15.7526 5.56961H13.9379C13.6568 5.56961 13.3873 5.45796 13.1885 5.25924C12.9898 5.06052 12.8783 4.79099 12.8783 4.50995C12.8783 4.3708 12.9056 4.23301 12.9588 4.10445C13.0121 3.97589 13.0901 3.85908 13.1885 3.76068C13.2869 3.66229 13.4037 3.58422 13.5323 3.53097C13.6609 3.47772 13.7987 3.45032 13.9379 3.45032H15.7842C16.2359 3.45032 16.6831 3.53927 17.1004 3.7121C17.5176 3.88493 17.8967 4.13824 18.216 4.45759C18.5354 4.77694 18.7888 5.15607 18.9616 5.57332C19.1345 5.99057 19.2234 6.43778 19.2234 6.88941C19.2235 7.34372 19.1334 7.79352 18.9585 8.21285C18.7837 8.63219 18.5276 9.01272 18.2049 9.33249C17.8822 9.65226 17.4993 9.90492 17.0784 10.0759C16.6575 10.2468 16.2069 10.3327 15.7526 10.3285V10.3285Z" fill="white"/>
<path d="M10.0229 17.9427H7.33893C7.05789 17.9427 6.78834 17.8311 6.58962 17.6324C6.3909 17.4337 6.27917 17.1641 6.27917 16.8831C6.27917 16.7442 6.30671 16.6068 6.36004 16.4785C6.41337 16.3503 6.49145 16.2339 6.58993 16.136C6.68841 16.0382 6.80531 15.9607 6.93383 15.9081C7.06236 15.8556 7.20007 15.829 7.33893 15.8298H10.0229C10.3466 15.8281 10.6564 15.6984 10.8847 15.4689C11.113 15.2394 11.2412 14.9289 11.2412 14.6052C11.2412 14.2821 11.1129 13.9722 10.8844 13.7437C10.6559 13.5153 10.346 13.3869 10.0229 13.3869H1.55204C1.27269 13.3869 1.00476 13.2759 0.807228 13.0784C0.609696 12.8809 0.498798 12.613 0.498798 12.3336C0.497962 12.1947 0.52447 12.0571 0.577029 11.9286C0.629588 11.8 0.707168 11.6832 0.805059 11.5847C0.90295 11.4862 1.01936 11.4081 1.14757 11.3547C1.27578 11.3014 1.41319 11.274 1.55204 11.274H10.0229C10.907 11.274 11.7549 11.6247 12.3807 12.2493C13.0064 12.8738 13.3588 13.7211 13.3605 14.6052C13.3588 15.4898 13.0065 16.3378 12.381 16.9633C11.7554 17.5889 10.9076 17.9411 10.0229 17.9427V17.9427Z" fill="white"/>
</svg>
